<?xml version="1.0" encoding="utf-8"?>
<!-- Generator: Adobe Illustrator 24.0.3, SVG Export Plug-In . SVG Version: 6.00 Build 0)  -->
<svg version="1.1" id="Layer_1" xmlns="http://www.w3.org/2000/svg" xmlns:xlink="http://www.w3.org/1999/xlink" x="0px" y="0px"
	 viewBox="0 0 551 611" style="enable-background:new 0 0 551 611;" xml:space="preserve">
<style type="text/css">
	.st0{fill:#3465A3;}
	.st1{fill:#247DDC;}
</style>
<g>
	<polygon points="33.8,275.1 33.8,502.2 182.5,427.5 182.5,200.4 	"/>
	<polygon points="331.3,352.8 331.3,580 517.2,486.6 517.2,259.5 	"/>
	<polygon points="517.2,259.5 331.3,352.8 108.1,124.4 294.1,31 	"/>
	<polygon points="256.9,560.5 182.5,541.1 182.5,427.5 256.9,446.9 	"/>
	<polygon class="st0" points="33.8,275.1 33.8,502.2 182.5,427.5 182.5,200.4 	"/>
	<polygon class="st0" points="331.3,352.8 331.3,580 517.2,486.6 517.2,259.5 	"/>
	<polygon class="st1" points="517.2,259.5 331.3,352.8 108.1,124.4 294.1,31 	"/>
	<polygon class="st1" points="256.9,560.5 182.5,541.1 182.5,427.5 256.9,446.9 	"/>
</g>
</svg>
